<?xml version="1.0" encoding="UTF-8"?>
<svg width="52.249mm" height="52.228mm" version="1.1" viewBox="0 0 52.249 52.228" xmlns="http://www.w3.org/2000/svg">
<g transform="translate(210.95 -174.24)">
<path transform="matrix(1.1195 .25036 -.25036 1.1195 -249.39 116.68)" d="m91.925 72.332c-0.83488 1.312-14.013-2.2511-15.46-1.6804s-8.6429 12.171-10.149 11.783c-1.5057-0.3886-2.1894-14.023-3.1791-15.222-0.98975-1.1994-14.246-4.4587-14.342-6.0109-0.09572-1.5521 12.66-6.4155 13.495-7.7275 0.83488-1.312-0.16186-14.927 1.2847-15.498s10.014 10.058 11.519 10.446c1.5057 0.3886 14.146-4.7666 15.136-3.5672 0.98975 1.1994-6.4712 12.632-6.3755 14.184 0.09571 1.5521 8.9048 11.981 8.0699 13.293z" fill="#333" stroke="#f8f8f8" stroke-linecap="square" stroke-miterlimit="0" stroke-width="1.5"/>
<rect transform="matrix(.84108 .54092 -.70637 .70784 0 0)" x="6.8825" y="261.2" width="3.0592" height="26.064" fill="#f8f8f8" fill-rule="evenodd"/>
</g>
</svg>
